Patient4_TMGait_0pt2_02_right_16_EMG.mot
version=1
nRows=29
nColumns=33
inDegrees=no
endheader
time	1LAddLong	2LGlutMax	3LGlutMed	4LIliopsoas	5LSemiMemb	6LBicFemLong	7LRecFem	8LVastMed	9LVastLat	10LGasMed	11LTibAnt	12lTibPost	13LPeroneusLong	14LSol	15LExtDigLong	16LFlexDigLong	17RAddLong	18RGlutMax	19RGlutMed	20RIliopsoas	21RSemiMemb	22RBicFemLong	23RRecFem	24RVastMed	25RVastLat	26RGasMed	27RTibAnt	28RTibPost	29RPeroneusLong	30RSol	31RExtDigLong	32RFlexDigLong
37.89	0.012665	0.014038	-0.075073	0.001831	0.027924	0.19226	0.11154	0.005035	-0.38879	0.013428	0.003052	0.010223	0.14893	-0.092468	0.042572	0.004425	-0.011292	0.077057	-0.47195	-0.011597	0.090179	0	-0.16983	-0.11093	0.022125	0.009918	-0.49805	-0.014801	-0.089417	-0.12711	0.001068	-0.008545
37.891	0.014496	-0.026398	-0.14893	0.007935	0.015411	0.040283	0.10819	-0.024567	-0.26306	0.007629	-0.007477	0.010376	-0.11704	-0.073853	0.049286	-0.000153	-0.011597	0.089417	0.092316	-0.066833	0.088806	0.003357	-0.18204	-0.081329	0.018616	0.010071	-0.17929	-0.007935	-0.016174	-0.14206	-0.002136	-0.007629
37.892	0.010071	-0.1004	-0.022888	-0.011444	-0.016022	-0.025024	0.09079	-0.015717	-0.17258	-0.008392	-0.015869	0.007629	0.010834	-0.053558	-0.003204	0.005035	-0.003967	0.031433	0.092316	-0.066833	0.081329	0.011444	-0.088959	-0.032043	0.016785	0.007782	-0.18005	-0.010223	0.046844	-0.14648	-0.003815	-0.011139
37.893	0.005798	-0.1413	0.067596	0.011139	0.02243	0.018005	0.12634	0.010986	0.011597	0.003815	-0.021362	0.000763	0.063324	-0.11047	-0.008545	0.005798	0.005035	-0.075073	-0.29312	-0.053406	0.081787	-0.006256	-0.076447	-0.052185	0.018005	0.009003	-0.14145	-0.004883	0.010986	-0.17334	0.000153	-0.00885
37.894	-0.001526	-0.086365	-0.003967	-0.010071	0.014343	0.099335	0.11841	0.017548	0.088043	0.007935	-0.005493	0.003662	0.016632	-0.14099	-0.043488	-0.002136	-0.008698	-0.054169	-0.45151	-0.055389	0.072937	-0.014343	-0.027771	-0.019073	0.008698	-0.000458	-0.079498	-0.010834	-0.009766	-0.057526	0.000153	-0.003052
37.895	-0.001831	0.005188	-0.045776	-0.007324	0.010834	0.14496	0.12375	0.011597	0.071411	-0.015259	-0.014648	0.00351	-0.022888	-0.075531	0.006866	-0.002441	0.017395	-0.020142	-0.70633	-0.050964	0.057068	-0.036774	-0.018005	0.001221	0.018463	0.003052	-0.018463	-0.011597	-0.019989	0.1178	0.003662	-0.005035
37.896	0.003204	0.07431	-0.10696	-0.018616	0.012817	-0.18143	0.081482	-0.016174	-0.032196	-0.019836	-0.009003	0.005951	-0.024414	-0.007935	0.020752	0.003357	0.025787	-0.044403	-0.54977	-0.028992	0.07309	-0.034332	-0.084229	-0.020599	0.000916	0.002594	0.067291	-0.013733	-0.034027	0.11963	0.001068	-0.011749
37.897	0.008545	0.05661	-0.18814	-0.006714	0.018768	-0.32791	0.049591	-0.018463	-0.074158	-0.033112	-0.019531	0.013275	-0.094604	0.050964	-0.010986	0.006409	0.10483	-0.003204	-0.35111	-0.14954	0.059509	-0.015411	-0.094604	-0.032501	0.001984	0.002594	0.048981	-0.01297	-0.03479	0.067596	0.001678	-0.012512
37.898	-0.002747	0.096283	-0.06134	-0.014801	0.021362	-0.16052	0.077667	0.019226	-0.033722	-0.032349	-0.015411	0.009918	-0.039825	0.12863	0.06958	-0.012817	0.090027	-0.023956	-0.34119	-0.10391	0.048981	-0.039368	-0.088501	-0.083466	0.028076	0.006866	-0.2858	-0.005798	-0.034027	-0.004578	0.000763	-0.011139
37.899	-0.007172	0.16922	0.036163	-0.012054	0.013275	0.062408	0.07843	0.041504	0.034943	-0.013275	0.04425	0.007019	-0.083313	0.1091	0.024414	-0.009308	0.061646	-0.04837	-0.22385	0.016632	0.03952	-0.051727	-0.11612	-0.063324	0.00061	0.005951	-0.46738	-0.001678	-0.08255	-0.059509	0.002441	-0.013885
37.9	-0.005188	0.1831	-0.061951	-0.007172	0.007019	0.093689	0.043182	0.028687	0.095367	-0.009155	0.012054	0.006561	-0.10925	0.071869	-0.18585	-0.006866	0.024109	-0.021057	-0.36896	0.085754	0.040894	-0.041809	-0.088348	-0.074921	0.005188	0.006561	-0.35278	-0.009918	-0.029144	-0.10086	-0.001373	-0.004272
37.901	-0.009155	0.1149	-0.15686	0.014648	0.013885	0.080872	0.052643	0.02655	0.074463	-0.020142	0.018616	0.004883	0.37201	0.072327	0.026855	0.002289	0.002747	-0.020752	-0.50644	0.2002	0.050201	-0.042877	-0.072784	-0.06485	0.007782	0.012207	0.098267	-0.009003	0.040436	-0.073242	0.002441	0.00061
37.902	-0.006104	0.05188	-0.03418	-0.002747	0.018616	0.016632	0.018158	0.016632	0.10773	-0.01358	0.10956	0.006104	0.1088	0.042572	0.56183	-0.009613	0.044556	-0.057983	-0.50766	0.2385	0.042114	-0.026398	-0.088501	-0.044708	0.003357	0.009766	0.33295	-0.003967	0.06897	-0.055847	0.003815	-0.011444
37.903	-0.010071	0.093689	0.014648	0.001526	0.007019	0.054932	-0.014954	-0.002136	0.13214	-0.017548	0.12711	0.008087	0.007629	0.029602	0.024567	-0.007172	0.03067	-0.065918	-0.57159	0.17685	0.049744	-0.035553	-0.14008	-0.049591	0.019989	0.00885	0.14572	-0.004425	0.024719	-0.019073	-0.000458	-0.023193
37.904	-0.010681	0.048676	0.13016	0.02655	-0.001678	0.11124	-0.070648	-0.021973	0.079041	-0.015869	0.039368	0.006256	-0.015411	0.056915	0.24597	-0.013733	0.009613	-0.023956	-0.35416	0.082245	0.062256	-0.032959	-0.10788	-0.045624	0.032043	0	0.10468	-0.003815	-0.082245	-0.013428	-0.000916	-0.025635
37.905	-0.003357	0.015411	0.29755	0.03006	-0.011139	0.066223	-0.1358	-0.024872	0.062103	0.00885	0.046082	0.007172	0.20996	0.084534	-0.25711	-0.016327	-0.011749	-0.018005	-0.20386	-0.031433	0.066986	-0.031738	-0.080872	-0.028992	0.020142	-0.005188	0.19516	-0.008698	-0.079651	-0.02243	-0.000916	-0.023804
37.906	0	0.035858	0.29739	0.019989	0.029602	-0.004578	-0.072632	-0.014496	-0.096436	0.001984	-0.075684	0.013123	0.57739	0.13534	-0.23239	-0.014343	-0.032501	-0.029907	-0.48233	-0.025177	0.072784	-0.033417	-0.085602	-0.035095	0.012817	-0.003357	0.20264	-0.003052	-0.11612	-0.06073	0.002289	-0.023499
37.907	0.000305	0.057526	0.30853	0.008698	0.01709	0.085449	-0.019226	-0.001221	-0.29404	-0.012665	-0.11368	0.006714	0.050201	0.12772	-0.080109	-0.000458	-0.059967	-0.036621	-0.55725	0.001678	0.071259	-0.050201	-0.044708	-0.078583	-0.005646	-0.003357	0.27313	-0.005188	-0.099487	-0.08316	-0.001221	-0.018921
37.908	0.01236	0.050812	0.19638	0.018768	0.024719	0.065155	0.11627	-0.00473	-0.23575	-0.029755	-0.094452	0.008545	0.098572	0.046997	-0.20447	-0.001068	-0.05188	-0.02533	-0.54855	-0.1091	0.060272	-0.04715	-0.010681	-0.081482	0.003204	0.00061	0.21316	-0.00824	-0.063019	-0.13718	0.000458	-0.007019
37.909	0.018768	0.043793	0.16251	0.020142	0.031738	-0.043182	0.15976	-0.018311	-0.006104	-0.037689	-0.096283	0.000153	0.03418	-0.008545	-0.20096	-0.00946	-0.024719	-0.001221	-0.055695	-0.177	0.091248	-0.048981	-0.059967	-0.057373	0.010529	0.006104	0.33371	-0.002136	-0.045013	-0.14038	0.001221	-0.003815
37.91	0.014191	0.024261	0.1503	-0.004272	0.027924	-0.072327	0.15884	0.02182	0.13672	-0.035553	-0.082855	0.004425	-0.50873	0.030212	-0.25787	-0.009613	-0.007324	0.023041	0.071411	-0.14145	0.09079	-0.075836	-0.070343	-0.021667	0.02533	0.00351	0.35141	-0.009613	-0.094452	-0.092468	-0.00061	0.001678
37.911	0.005951	-0.015564	-0.015717	0.006714	0.020599	-0.014496	0.10773	0.05127	0.069275	-0.070496	0.056915	0.002747	-0.43808	0.024414	0.034332	-0.010223	-0.006409	-0.043182	0.25131	-0.07309	-0.006561	-0.088501	-0.085449	-0.019989	0.034027	0.006561	0.06012	-0.007629	-0.12375	-0.1001	-0.003357	-0.007477
37.912	0.005646	-0.12329	-0.1622	-0.019989	0.030212	0.067749	-0.027466	0.018921	0.007019	-0.039368	0.075684	0.006104	-0.042419	-0.11627	0.009766	-0.0177	0.000916	-0.11246	-0.29175	0.023041	-0.10529	-0.028687	-0.066528	-0.050201	0.03067	0.004425	-0.051575	-0.006866	-0.066833	-0.060425	0.002747	-0.011292
37.913	0.003052	-0.1619	-0.22812	-0.016327	0.024719	0.028992	-0.11978	-0.021667	0.10498	-0.026855	0.032196	0.006409	0.026245	-0.090027	-0.011139	-0.007782	0.007324	-0.092926	-0.69565	0.083466	-0.023193	-0.01236	-0.058441	-0.032196	0.027771	0.010681	-0.16251	-0.004272	0.03067	-0.073242	0.000305	-0.006409
37.914	0.013733	-0.12528	-0.19669	0.006866	0.005646	0.030823	-0.15869	-0.024414	0.13702	-0.042114	0.041046	0.009918	-0.3302	-0.032043	0.001831	-0.006866	0.030823	-0.058441	-0.811	0.084534	0.17883	0.004883	-0.053101	-0.082397	0.031738	0.012665	-0.34729	-0.005951	-0.013428	-0.039063	0	-0.009003
37.915	0.003815	-0.12421	-0.18387	0.017395	-0.017395	-0.014954	-0.15274	0.003204	0.048676	-0.01358	0.057983	0.006256	-0.080414	-0.12482	-0.029297	-0.005646	0.017242	-0.034943	-0.53589	0.051575	0.19714	0.080872	-0.048065	-0.072327	0.017548	0.004578	-0.10834	-0.001221	-0.045929	-0.083466	0.001068	-0.016022
37.916	0.006866	-0.15549	-0.20447	0.001373	-0.037537	-0.18585	-0.11017	-0.002289	-0.089264	0.000153	0.0354	0.006714	0.20355	-0.20981	0.019989	-0.003662	-0.031433	0.023193	-0.2121	-0.026855	0.091095	0.055084	-0.049744	-0.046387	0.03067	0.005951	-0.011292	-0.005646	-0.13229	-0.13596	-0.002441	-0.014954
37.917	-0.010223	-0.16876	-0.057831	-0.00412	-0.037079	-0.18631	-0.012054	-0.010681	-0.13184	-0.016022	0.030212	0.009613	0.097809	-0.1059	0.075989	-0.004425	-0.02594	0.034332	0.18021	-0.05188	-0.048981	0.00885	-0.062561	-0.050201	0.020752	0.002441	-0.20309	-0.006409	-0.059204	-0.094452	-0.00061	-0.016479
37.918	-0.009308	-0.16449	0.12726	-0.025635	-0.015869	-0.068054	0.063629	-0.015106	-0.10239	-0.015869	0.010529	0.009003	0.042877	0.00473	0.10101	-0.01358	0.032501	-0.046234	-0.39902	-0.009155	-0.059967	-0.039368	-0.053711	-0.070343	0.01358	0.007019	-0.011597	-0.001984	0.025177	-0.021973	0.003815	-0.020142
